<svg width="752" height="613.12089" xmlns="http://www.w3.org/2000/svg" data-name="Layer 1">
 <title>preservation</title>

 <g>
  <title>Layer 1</title>
  <path id="svg_1" fill="#3f3d56" d="m712.06709,501.37628c13.15168,46.82 -113.43889,153.7908 -336.16167,94.07509c-179.32334,-48.07958 -336.16167,-68.44335 -336.16167,-94.07509s150.50471,1.25433 336.16167,1.25433s329.23006,-25.93098 336.16167,-1.25433z"/>
  <path fill="#7f003f" id="svg_2" opacity="0.1" d="m713.40042,501.37628c13.15168,46.82 -113.43889,153.7908 -336.16167,94.07509c-179.32334,-48.07958 -336.16167,-68.44335 -336.16167,-94.07509s150.50471,1.25433 336.16167,1.25433s329.23006,-25.93098 336.16167,-1.25433z"/>
  <path id="svg_3" fill="#ff56aa" d="m714.73376,500.04294c13.15168,46.82 -113.43889,106.12609 -336.16167,46.41038c-179.32334,-48.07959 -336.16167,-20.77864 -336.16167,-46.41038s150.50471,-46.41038 336.16167,-46.41038s329.23006,21.73373 336.16167,46.41038z"/>
  <ellipse id="svg_4" opacity="0.1" ry="9" rx="26" cy="526" cx="484"/>
  <ellipse id="svg_5" opacity="0.1" ry="9" rx="26" cy="526" cx="590"/>
  <ellipse id="svg_6" opacity="0.1" ry="23" rx="85" cy="486" cx="376"/>
  <path id="svg_7" fill="#ff007f" d="m752,416.00001l0,-416l-752,0l0,416l347,0l0,55.60938c-17.33118,2.07513 -29,5.9497 -29,10.39062c0,6.62738 25.96747,12 58,12s58,-5.37262 58,-12c0,-4.44092 -11.66882,-8.31549 -29,-10.39062l0,-55.60938l347,0z"/>
  <rect id="svg_8" fill="#f2f2f2" height="372.85106" width="674" y="14.57447" x="39"/>
  <path id="svg_9" opacity="0.1" d="m713,15.00001s-280,29 -331,141s-343,231 -343,231l674,0l0,-372z"/>
  <path id="svg_10" fill="#2f2e41" d="m587.24609,193.00001l0,27.64845l-103.49218,0l0,-25.958l-3,0l0,331.30955l3,0l0,-59.3125l103.49218,0l0,59.3125l3,0l0,-333l-3,0zm0,30.64844l0,45.60742l-103.49218,0l0,-45.60741l103.49218,-0.00001zm-103.49218,142.82324l0,-45.60742l103.49218,0l0,45.60742l-103.49218,0zm103.49218,3l0,45.60742l-103.49218,0l0,-45.60742l103.49218,0zm-103.49218,-51.60742l0,-45.6084l103.49218,0l0,45.6084l-103.49218,0zm0,145.82324l0,-45.6084l103.49218,0l0,45.6084l-103.49218,0z"/>
  <path id="svg_11" fill="#f72887" d="m451.121,199.58331l0,4.14415s-2.96013,1.18405 -2.96013,5.92026s-2.36811,22.497 -2.36811,22.497s4.14419,3.55216 7.69634,2.36811a14.4625,14.4625 0 0 0 5.32824,-2.96014l0.592,-18.35281l-2.36811,-4.73621l0,-8.28837l-5.92023,-0.59199z"/>
  <path id="svg_12" fill="#f72887" d="m564.37816,35.00001s-10.29611,1.18406 -10.29611,5.92026s-8.23688,22.497 -8.23688,22.497s14.41455,3.55216 26.76988,2.36811s18.533,-2.96013 18.533,-2.96013l2.05922,-18.35282l-8.23689,-4.73621l-20.59222,-4.73621z"/>
  <path id="svg_13" fill="#ffb8b8" d="m565.382,76.44185l0,-11.2485s-12.43255,-24.8651 -2.3681,-24.8651s11.2485,22.497 11.2485,22.497l0,15.9847l-8.8804,-2.3681z"/>
  <path id="svg_14" fill="#ffb8b8" d="m458.81731,194.25507s-6.51229,-3.55216 -7.69634,0s-4.73621,11.2485 0,11.84053s9.47242,-3.55216 9.47242,-3.55216l-1.77608,-8.28837z"/>
  <path id="svg_15" fill="#2f2e41" d="m490.86866,218.23599s-3.56489,4.70807 1.60728,50.64s2.19194,79.37638 12.01076,78.918c0,0 -2.56277,9.95987 5.78073,10.32728s12.15522,0.94639 12.80473,-1.35475s1.66643,-12.94579 -0.59946,-12.84c0,0 0.141,3.02118 1.08744,-9.13405s-1.73353,-69.55756 1.69032,-77.28681l13.3894,27.38168s0.59946,12.84 3.14744,18.77656s7.94651,40.50377 7.94651,40.50377l-0.50846,5.32232s18.2681,2.17488 18.88234,-0.88156s0.40268,-7.5882 -0.42314,-9.06352s-0.82582,-1.47533 0.54372,-4.567a9.15592,9.15592 0 0 0 0.40267,-7.5882c-0.86108,-2.23062 -3.15312,-51.32472 -3.15312,-51.32472s-4.29631,-59.59769 -13.50088,-62.19572s-61.10828,4.36672 -61.10828,4.36672z"/>
  <path id="svg_16" fill="#2f2e41" d="m506.96415,352.21989l-5.54867,10.85621s-9.59986,-2.95805 -7.30611,5.63968a151.09772,151.09772 0 0 0 27.55063,-1.66472s3.847,1.33428 4.4965,-0.96687s-2.36428,-10.10831 -4.63016,-10.00252s-14.56219,-3.86178 -14.56219,-3.86178z"/>
  <path id="svg_17" fill="#2f2e41" d="m550.63015,347.15346s-5.40763,13.87739 -3.10649,14.5269s22.83513,2.7186 24.381,3.40337s9.13405,1.08744 9.67777,-3.47959s-4.05857,-5.866 -4.05857,-5.866s-8.37875,-1.1227 -10.99726,-8.56985s-15.89645,-0.01483 -15.89645,-0.01483z"/>
  <circle id="svg_18" fill="#ffb8b8" r="15.81446" cy="89.8249" cx="499.35674"/>
  <path id="svg_19" fill="#ffb8b8" d="m491.03334,97.31597s4.1617,21.64084 2.497,25.80254s23.30552,-1.66468 23.30552,-1.66468s-4.994,-21.64084 -4.1617,-26.63488s-21.64082,2.49702 -21.64082,2.49702z"/>
  <path id="svg_20" fill="#2f2e41" d="m498.87639,70.29178a8.93863,8.93863 0 0 0 -3.956,0.17466a10.315,10.315 0 0 0 -2.81141,1.84424a32.90553,32.90553 0 0 1 -4.8069,3.18472a11.216,11.216 0 0 0 -3.74013,2.62176a7.95819,7.95819 0 0 0 -1.05562,1.99817a23.944,23.944 0 0 0 -1.25892,13.03151a5.99,5.99 0 0 0 0.55443,1.78939c0.86508,1.59385 2.77576,2.222 4.3853,3.05749c3.05585,1.5863 5.37231,4.25741 7.8787,6.61805a15.4025,15.4025 0 0 0 3.11291,2.399c3.57571,1.94956 7.9463,1.31355 11.96019,0.62417a2.15543,2.15543 0 0 0 2.15117,-2.176l3.16829,-14.25008a23.24887,23.24887 0 0 0 0.812,-6.48089c-0.221,-3.45921 -2.0938,-8.251 -4.63253,-10.70821c-2.95805,-2.86304 -7.89487,-3.31863 -11.76148,-3.72798z"/>
  <path id="svg_21" fill="#575a88" d="m487.23457,124.39597s1.18405,-8.28836 8.28837,-8.88039a58.57015,58.57015 0 0 0 11.84052,-2.3681c0.592,0 8.28837,0.592 11.84053,4.14418c0,0 2.3681,3.55216 3.55215,1.18405s1.18406,-3.55216 3.55216,-2.3681s2.36811,-3.55216 6.51229,-2.96013s14.80066,27.2332 14.80066,27.2332l-3.55216,4.14419s-4.73621,31.96941 3.55216,45.586s11.84052,28.41726 3.55215,31.37739s-66.30694,29.60131 -63.93883,13.02458s0.592,-42.62589 -1.77608,-43.21792s-15.39268,-47.3621 -15.39268,-47.3621a18.38855,18.38855 0 0 1 10.65647,-13.6166c9.47242,-4.14417 6.51229,-5.92025 6.51229,-5.92025z"/>
  <path id="svg_22" fill="#575a88" d="m529.86046,115.51558l2.96013,-2.3681s5.32824,0 5.92026,-1.18406s3.55216,-1.18405 5.92027,-2.3681s-0.592,-2.96013 2.3681,-4.14418s2.96013,0 2.96013,-2.96014s7.69634,-5.92026 8.28837,-9.47242s6.51228,-20.12889 6.51228,-20.12889l11.2485,3.55216l-2.96014,21.31294s0,10.65648 -5.32823,17.76079s-17.16876,24.8651 -23.089,25.45713s-14.80067,-25.45713 -14.80067,-25.45713z"/>
  <path id="svg_23" fill="#575a88" d="m473.618,140.97271l-3.55216,2.96013s-1.18405,13.02458 -1.18405,13.6166s1.18405,7.69635 0,8.28837s-3.55216,12.43255 -2.96013,13.02458l0,0l0,1.77607l-8.28837,13.02457l0,12.43256l19.53686,-12.43256s11.2485,-1.18405 9.47242,-11.24849s-13.02457,-41.44183 -13.02457,-41.44183z"/>
  <circle id="svg_24" fill="#3f007f" r="11" cy="405" cx="377.33333"/>
 </g>
</svg>